<?xml version="1.0" encoding="utf-8"?>
<!-- Generator: Adobe Illustrator 28.3.0, SVG Export Plug-In . SVG Version: 6.00 Build 0)  -->
<svg version="1.1" id="Layer_1" xmlns="http://www.w3.org/2000/svg" xmlns:xlink="http://www.w3.org/1999/xlink" x="0px" y="0px"
	 viewBox="0 0 595.28 841.89" style="enable-background:new 0 0 595.28 841.89;" xml:space="preserve">
<g>
	<g>
		<path d="M305.93,430.51c10.97-1.71,10.95-1.71,11.68,9.15c0.12,1.85,0.4,3.74,0.99,5.48c0.77,2.28,2.53,3.83,4.99,3.92
			c2.62,0.1,4.44-1.4,5.51-3.76c0.26-0.56,0.4-1.18,0.62-1.76c0.21-0.57,0.38-1.36,1.15-1.23c1.06,0.18,0.74,1.12,0.66,1.79
			c-0.38,3.13-3.45,5.96-7.27,6.61c-3.48,0.6-6.09-0.73-7.79-3.82c-1.3-2.37-1.51-4.97-1.53-7.61c-0.01-1.74,0.01-3.51-0.26-5.22
			c-0.37-2.36-1.72-3.44-4.25-2.79c-3.38,0.86-5.83,1.92-6.69,6.18c-2.47,12.33-5.93,24.44-10.07,36.33
			c-0.29,0.82-0.58,1.64-0.9,2.45c-0.49,1.24-1.3,2.34-2.69,2.21c-1.75-0.16-1.92-1.74-2.01-3.12c-0.58-9.6,0.57-18.93,4.74-27.7
			c1.33-2.81,2.57-5.8,4.51-8.16c6.82-8.3,7.18-18.64,9.32-28.39c1.06-4.85,1.58-9.83,2.14-14.78c0.22-1.94,0.3-4.26-1.58-5.47
			c-1.98-1.27-3.86,0.2-5.52,1.2c-4.59,2.75-8.62,6.21-12.69,9.84c4.78,2.58,5.71,4.38,4.84,9.52c-0.43,2.57-1.08,5.11-1.69,7.65
			c-0.22,0.92-0.87,1.65-1.88,1.43c-1.32-0.28-0.77-1.41-0.6-2.14c0.75-3.28,1.48-6.57,1.37-9.96c-0.05-1.58-0.54-3.02-2.13-3.63
			c-1.35-0.51-2.69-0.31-3.81,0.77c-6.47,6.24-12.83,12.58-17.55,20.32c-0.56,0.92-1.52,2.04-0.73,3.07c0.76,1,2.15,0.53,3.18,0.22
			c4.88-1.5,9.72-3.12,14.57-4.68c0.44-0.14,0.91-0.18,1.46,0.06c-6.03,3.14-12.23,5.83-19.06,6.51c-2.81,0.28-3.76-1.35-2.6-4.13
			c1.42-3.37,3.8-6.14,6.21-8.84c2.98-3.34,6.06-6.58,9.18-9.96c-1.48-0.64-2.26,0.42-3.08,0.97
			c-15.31,10.23-27.34,23.53-36.47,39.46c-1.61,2.81-2.86,5.81-3.02,9.15c-0.13,2.68,1.04,4.15,3.73,4.66
			c3.85,0.72,7.42-0.41,11-1.41c8.55-2.41,16.71-5.77,24.39-10.25c0.85-0.5,1.77-0.9,2.69-1.26c0.3-0.12,0.71,0.04,1.21,0.08
			c-0.09,1.27-1.15,1.49-1.9,1.94c-10.02,6.01-20.77,10.19-32.19,12.66c-0.49,0.11-0.97,0.25-1.46,0.31
			c-9.19,1.26-12.92-3.29-9.38-11.87c4.34-10.53,11.43-19.28,19.17-27.44c8.7-9.17,18.07-17.58,30.24-22.06
			c1.47-0.54,2.39-1.77,3.5-2.75c4.55-4.08,9.01-8.29,14.67-10.85c5.4-2.45,8.52-0.55,8.6,5.38c0.12,9.31-2.5,18.22-4.14,27.28
			c-0.15,0.83-0.57,1.65,0.04,2.8c2.97-3.48,5.82-6.9,8.77-10.23c13.55-15.29,28.17-29.32,46.5-38.89c8.69-4.54,17.85-7.63,27.7-8.4
			c1.59-0.13,1.59-0.16,3.88,1.03c-1.97,0.22-3.95,0.41-5.92,0.67c-16.8,2.22-30.68,10.64-43.59,20.9
			c-14.13,11.23-26.39,24.32-37.4,38.6C306.91,429.01,306.59,429.53,305.93,430.51z M300.37,438.89
			c-7.71,9.79-10.03,21.12-9.28,33.29C295.01,461.33,298.15,450.27,300.37,438.89z"/>
	</g>
</g>
</svg>
