<?xml version="1.0" encoding="UTF-8"?>
<svg id="Layer_1" data-name="Layer 1" xmlns="http://www.w3.org/2000/svg" version="1.1" viewBox="0 0 160 160">
  <defs>
    <style>
      .cls-1 {
        fill: #000;
        stroke-width: 0px;
      }
    </style>
  </defs>
  <path class="cls-1" d="M72,91.2c7.3-1.6,11.2,2.7,11.7,13.1,0,2.7.4,5.3,1,7.9.8,3.3,2.5,5.5,5,5.6,2.6.1,4.4-2,5.5-5.5.3-.9.4-1.7.6-2.6.2-.9.4-2,1.1-1.7,1.1.3.7,1.6.7,2.6-.4,4.4-3.5,8.6-7.3,9.5-3.5.9-6.1-1-7.8-5.5-1.3-3.4-1.5-7.2-1.5-10.9s0-5-.3-7.5c-.4-3.4-1.7-4.9-4.2-4-3.4,1.3-5.8,2.7-6.7,8.9-2.5,17.7-5.9,35-10.1,52.1-.3,1.1-.6,2.3-.9,3.6-.5,1.7-1.3,3.3-2.7,3.2-1.8-.3-1.9-2.4-2-4.4-.6-13.8.6-27.1,4.7-39.8,1.3-4,2.6-8.3,4.5-11.8,6.8-11.9,7.2-26.7,9.3-40.8,1.1-7,1.6-14.1,2.1-21.2.2-2.7.3-6.2-1.6-7.9-2-1.9-3.9.3-5.5,1.7-4.6,4-8.6,8.9-12.7,14.1,4.8,3.7,5.7,6.3,4.8,13.6-.4,3.7-1.1,7.3-1.7,10.9-.2,1.3-.9,2.3-1.9,2-1.3-.4-.8-2-.6-3,.8-4.7,1.5-9.5,1.4-14.4,0-2.3-.5-4.3-2.1-5.2-1.4-.7-2.7-.4-3.8,1.1-6.5,8.9-12.8,18.1-17.5,29.1-.6,1.3-1.5,2.9-.7,4.5.8,1.4,2.1.7,3.2.3,4.9-2.2,9.7-4.5,14.6-6.7.4-.1.9-.3,1.5,0-6,4.4-12.2,8.3-19.1,9.3-2.8.4-3.8-2-2.6-5.9,1.4-4.9,3.8-8.8,6.2-12.6,3-4.7,6.1-9.5,9.2-14.4-1.5-.9-2.3.6-3.1,1.4-15.3,14.6-27.2,33.7-36.4,56.7-1.6,4-2.9,8.3-3,13.1,0,3.9,1,5.9,3.7,6.7,3.9,1,7.4-.6,11-2,8.5-3.4,16.7-8.3,24.4-14.6.9-.7,1.8-1.3,2.7-1.9.3-.1.7,0,1.2,0,0,1.9-1.1,2.2-1.9,2.7-10,8.6-20.8,14.6-32.1,18.2-.5.1-1,.3-1.5.4-9.2,1.9-12.9-4.7-9.4-17.1,4.3-15.1,11.4-27.7,19.2-39.3,8.7-13.2,18.1-25.3,30.1-31.7,1.5-.7,2.4-2.6,3.5-4,4.5-5.9,9-11.9,14.7-15.6,5.4-3.6,8.5-.7,8.6,7.8,0,13.3-2.5,26.1-4.1,39.2,0,1.1-.6,2.3,0,4,3-5,5.8-9.9,8.8-14.6,13.5-22,28.1-42.1,46.4-55.8,8.7-6.5,17.9-10.9,27.6-12.1,1.6-.1,1.6-.3,3.9,1.4-2,.3-4,.6-5.9,1-16.8,3.2-30.6,15.2-43.5,30-14.1,16.1-26.4,34.9-37.3,55.4-.4.7-.7,1.4-1.4,2.9v.4ZM66.5,103.3c-7.7,14.1-10,30.3-9.3,47.8,3.9-15.6,7.1-31.4,9.3-47.8Z"/>
</svg>